<?xml version="1.0" encoding="UTF-8" standalone="no"?>
<!-- Created with Inkscape (http://www.inkscape.org/) -->

<svg
   width="282.03448mm"
   height="92.963608mm"
   viewBox="0 0 282.03448 92.963608"
   version="1.1"
   id="svg5"
   inkscape:version="1.1.1 (3bf5ae0d25, 2021-09-20)"
   sodipodi:docname="gomorran-logo.svg"
   inkscape:export-filename="C:\Users\Olli\Documents\GOMORRAN\logo 22\uus logoooo.png"
   inkscape:export-xdpi="300"
   inkscape:export-ydpi="300"
   xmlns:inkscape="http://www.inkscape.org/namespaces/inkscape"
   xmlns:sodipodi="http://sodipodi.sourceforge.net/DTD/sodipodi-0.dtd"
   xmlns="http://www.w3.org/2000/svg"
   xmlns:svg="http://www.w3.org/2000/svg">
  <sodipodi:namedview
     id="namedview7"
     pagecolor="#ffffff"
     bordercolor="#666666"
     borderopacity="1.0"
     inkscape:pageshadow="2"
     inkscape:pageopacity="0.0"
     inkscape:pagecheckerboard="0"
     inkscape:document-units="mm"
     showgrid="false"
     showguides="false"
     inkscape:guide-bbox="true"
     inkscape:zoom="0.70710685"
     inkscape:cx="400.2224"
     inkscape:cy="246.78024"
     inkscape:window-width="2560"
     inkscape:window-height="1377"
     inkscape:window-x="1912"
     inkscape:window-y="-8"
     inkscape:window-maximized="1"
     inkscape:current-layer="g840"
     inkscape:lockguides="false">
    <sodipodi:guide
       position="142.52469,123.45446"
       orientation="0,-1"
       id="guide2904"
       inkscape:locked="false" />
    <sodipodi:guide
       position="169.03932,-25.141882"
       orientation="0,-1"
       id="guide4483"
       inkscape:locked="false" />
    <sodipodi:guide
       position="182.38001,39.880321"
       orientation="0,-1"
       id="guide4485"
       inkscape:locked="false" />
    <sodipodi:guide
       position="214.6608,-9.0585845"
       orientation="0,-1"
       id="guide4487"
       inkscape:locked="false" />
    <sodipodi:guide
       position="58.008487,95.226651"
       orientation="0,-1"
       id="guide4489"
       inkscape:locked="false" />
    <sodipodi:guide
       position="159.82281,24.963171"
       orientation="0,-1"
       id="guide28541"
       inkscape:locked="false" />
    <sodipodi:guide
       position="177.00267,75.593041"
       orientation="0,-1"
       id="guide28561"
       inkscape:locked="false" />
    <sodipodi:guide
       position="204.91984,144.57128"
       orientation="0,-1"
       id="guide41239"
       inkscape:locked="false" />
    <sodipodi:guide
       position="142.61932,34.937333"
       orientation="1,0"
       id="guide45211"
       inkscape:locked="false" />
    <sodipodi:guide
       position="240.84086,31.195563"
       orientation="0,-1"
       id="guide50281"
       inkscape:locked="false" />
  </sodipodi:namedview>
  <defs
     id="defs2" />
  <g
     inkscape:groupmode="layer"
     id="g840"
     inkscape:label="gomorran"
     style="display:inline"
     transform="translate(-8.5483035,-61.523377)">
    <path
       id="path838"
       style="fill:#2e2e2e;fill-opacity:1;stroke:none;stroke-width:1.75748;stroke-linecap:butt;stroke-linejoin:miter;stroke-miterlimit:4;stroke-dasharray:none;stroke-opacity:1"
       d="m 543.36133,232.5293 c -53.95038,0.96045 -80.49024,36.94338 -80.49024,36.94336 -53.12231,56.81858 -55.50976,17.20117 -55.50976,17.20117 -9.99126,14.80316 -18.47056,20.909 -47.28516,22.5 -28.81459,1.59097 -39.30664,-29.58594 -39.30664,-29.58594 -11.33794,17.86648 -18.87689,24.33947 -31.59961,29.9375 -23.50158,9.50732 -69.77978,9.02443 -70.37304,8.41602 -25.20725,18.62323 -54.41531,33.64935 -83.68946,47.59179 0,0 -20.69107,-68.36388 -0.44922,-90.2207 5.51964,-6.05289 13.60234,-12.59778 22.03321,-18.9043 30.95362,39.48622 81.75,26.78516 81.75,26.78516 l 9.99218,-9.74219 11.64453,-10.85156 c -78.41179,10.69252 -90.86132,-28.62695 -90.86132,-28.62695 0,0 -40.31527,38.80358 -73.064456,58.21484 -25.264158,15.50219 -42.116829,29.70577 -56.304688,71.02734 -35.2342773,102.61844 59.918615,164.41687 142.724614,211.19922 -32.79466,-45.8166 24.72271,-77.05338 65.30859,-57.02929 0,0 28.51562,-48.94706 58.76562,-42.90821 30.24999,6.03889 28.50001,40.75002 24.5,51.25 -3.99998,10.50002 -11.17972,34.14069 -44.33984,48.19532 0,0 34.57195,-6.95518 54.58984,-42.44532 17.97897,-31.87525 8.65926,-40.44553 49.33008,-49.22265 0,0 -19.03991,-10.41963 -21.33008,-29.77735 -2.29013,-19.35775 3.99505,2.14232 20.14454,21.54297 5.45023,6.54743 28.33336,25.9165 30.32812,4.22266 1.58718,-17.76276 -2.33837,-31.92869 2.60938,-27.59766 20.56252,18 42.4099,27.89554 42.74023,63.00977 0,0 0.59521,-35.35297 16.90039,-35.55664 16.30518,-0.20372 29.24718,18.86349 15.4375,62.97851 0,0 10.7422,-23.55663 27.99219,-38.05664 17.25003,-14.50004 21.34375,-16.23047 21.34375,-16.23047 0,0 13.49809,-8.14852 24.24804,-10.39844 10.75,-2.24995 48.3838,-3.5693 45.69141,34.83985 0,0 0.24153,16.56607 -18.09961,30.23828 0,0 42.49142,-13.04301 56.4082,-42.57813 9.9645,-21.14728 12.98461,-37.46522 -2.25781,-65.73242 0,0 19.25781,55.98245 -17.24219,54.98242 -36.49995,-0.99998 -20.93945,-136.65429 -20.93945,-136.65429 0,0 0.36435,-13.72008 8.40235,-21.15821 l 24.25195,-17.72656 c 0,0 13.62097,-11.1821 25.78515,10.91406 5.28155,9.59398 -5.9018,7.85167 -1.56445,44.41993 0,0 0.29966,-38.28605 18.97461,-42.65625 18.44171,-4.31563 11.17254,96.74474 7.26953,114.06836 -1.13862,5.05383 -5.88237,17.86891 -19.46875,1.33007 -7.69701,-9.3696 -4.00362,-34.73373 -4.19336,-39.7207 -2.20448,23.83911 -6.1982,43.43184 5.83203,53.37109 16.16814,13.3581 6.12755,23.45893 4.84375,25.79883 -2.50484,4.56552 -4.50704,8.67654 -4.99804,13.32422 -0.49081,4.64769 0.52935,9.83222 4.07031,16.54492 0,0 1.69689,-39.11711 30.16406,-18.64843 18.32848,13.17864 26.47461,38.54296 26.47461,38.54296 0,0 -10.09631,-36.7695 22.46485,-59.15624 0,0 -31.18945,22.86329 -39.68946,-1.88672 -8.50004,-24.75001 -14.78494,-80.90304 -7.64258,-123.32618 0,0 -3.85737,-17.67382 39.14258,-30.42382 0,0 10.24999,-4.25001 19.125,6.75 8.87501,10.99999 10.37498,15.5 2.375,27.625 -7.99997,12.125 -6.15429,34.3457 -6.15429,34.3457 0,0 5.27932,-30.9707 24.02929,-32.0957 0,0 4.55009,25.36688 20.33789,48.87109 0,0 -100.63067,84.26248 0.0781,174.50781 0,0 10.66658,9.44207 34.75,8.75 0,0 -19.54097,-2.50391 -31.04102,-14.1289 -11.49997,-11.62504 -22.24996,-32.87502 -18.875,-52.75 3.37497,-19.87503 15.00001,-25.87503 37.375,-26.625 35.79757,2.79337 42.05971,11.7348 45.62305,29.69531 42.67368,-32.70997 41.59818,-114.06552 26.01953,-163.21289 -4.01665,-12.85755 0.74962,-17.49075 11.41602,-17.39063 2.46145,0.0231 5.72696,0.59133 10.09961,1.86133 15.94386,5.23269 33.67578,16.07031 33.67578,16.07031 l 0.31054,105.07618 h -25.39062 v 3.53515 h 25.40234 l 0.0117,4 h -13.37305 v 3.89063 H 964 l 0.10742,36.44726 c -21.99833,-0.0273 -46.32501,-10.51953 -67.21431,11.22266 45.46089,-15.02417 83.9035,9.71269 51.10884,55.5293 82.80605,-46.78235 177.95895,-108.58075 142.72465,-211.19922 -14.1879,-41.32158 -31.0406,-55.52516 -56.3047,-71.02735 -32.7492,-19.41126 -73.06448,-58.21484 -73.06448,-58.21484 0,0 -12.44951,39.31947 -90.86133,28.62695 4.72555,5.85934 9.18061,14.00386 13.77735,20.1875 39.37568,6.10323 72.54688,-6.10272 89.60937,-26.3789 8.43088,6.30652 16.06904,11.33885 22.03321,18.90429 23.62878,25.58905 -0.44922,90.22071 -0.44922,90.22071 -30.04585,-12.14708 -68.09189,-35.16065 -84.39258,-46.58008 -15.86634,9.28652 -45.79565,-1.86836 -61.68164,-10.63867 -18.23093,-11.117 -29.46289,-21.38086 -29.46289,-21.38086 -9.99489,20.95801 -18.70341,26.49203 -29.80664,24.49023 -10.96196,-2.42338 -18.51745,-11.49926 -20.9043,-37.32812 -9.74411,23.12667 -18.69262,26.31457 -32.86914,31.64062 -21.79839,8.18954 -11.22919,-13.00919 -32.26563,-36.69726 -23.72107,-26.71096 -58.03906,-38.51563 -58.03906,-38.51563 39.01172,26.53807 43.01351,46.29582 44.42774,57.25586 1.41422,10.96018 4.06366,36.41492 -16.97266,19.26758 -21.03655,-17.14734 -21.08398,-34.25391 -21.08398,-34.25391 -3.58402,15.42027 -8.96671,21.70292 -19.04297,32.83985 -10.07626,11.13693 -32.70355,16.79249 -28.81446,-15.38086 3.8891,-32.17335 -3.36328,-45.85743 -3.36328,-45.85743 0.70375,28.74191 -11.13286,47.0949 -28.81054,54.51954 -17.67765,7.42461 -16.27344,-36.70704 -16.27344,-36.70704 -4.95916,35.06324 -28.09733,48.02127 -31.63281,50.14258 -3.5356,2.12132 -63.81509,27.75532 -48.43555,-22.0957 15.37958,-49.85102 67.31836,-60.38281 67.31836,-60.38281 z m -443.25977,68.10156 c 0.28687,0.0185 0.54378,0.10706 0.75782,0.28516 2.58107,5.46709 2.334,10.13613 3.24804,16.61523 3.72353,34.35392 8.57263,64.14876 -1.22461,109.58594 -2.00249,16.45247 -10.406701,35.0174 -23.957029,36.15039 0,0 -23.464708,-18.11861 -23.761719,-73.36328 -0.297033,-55.24471 39.484376,-86.10938 39.484376,-86.10938 0,0 3.445054,-3.29485 5.453122,-3.16406 z m 931.92184,4.2793 c 0.7287,-0.0469 1.5188,0.23558 2.375,0.91601 -0.011,-0.0113 0.024,0.01 0.024,0.01 0,0 41.2834,31.48187 40.9863,86.72656 -0.2971,55.24475 -21.2852,71.41992 -21.2852,71.41992 -13.1972,5.58191 -21.5807,-21.51181 -26.4843,-37.27539 -10.3907,-35.93552 -7.8049,-69.90904 -1.9219,-107.92187 1.1537,-7.25769 3.1497,-13.67165 6.3066,-13.875 z m -587.41598,4.16015 c 2.64699,0.33392 4.85674,1.83826 6.55469,5.17188 4.99347,9.80386 6.12891,43.74023 6.12891,43.74023 3.15394,54.36823 -0.81729,74.41999 -2.49219,94.78711 -1.56246,18.99999 -15.5625,8.4375 -15.5625,8.4375 -5.44751,-4.25711 -19.664,-10.47217 -22.44531,-26.4375 -1.9598,-11.24946 -4.28533,-40.93237 -0.97461,-81.57226 1.5736,-19.31706 1.44466,-34.17454 15.68554,-40.51172 4.68968,-2.53915 6.99348,-2.81661 13.10547,-3.61524 z m -136.9707,4.59961 c 5.19534,-0.006 9.95111,1.4393 13.80078,4.88477 13.08515,13.48551 3.70896,26.17184 3.95898,63.67187 0.25002,37.49995 1.49902,55.99974 -5.83789,67.81836 -7.33689,11.81862 -39.54061,22.95855 -51.2539,16.43164 -11.84226,-6.59879 -10.25,-28.25 -10.25,-28.25 1.02838,-17.05285 -4.03808,-81.81034 4,-94 8.52371,-12.00152 27.02729,-30.53405 45.58203,-30.55664 z m 80.67383,1.88672 c 0.59017,-0.0223 1.18145,-0.0175 1.77343,0.0195 1.35315,0.0839 2.70783,0.33123 4.04688,0.77735 6.33985,2.11203 8.73125,6.47854 9.92773,19.19726 3.62136,38.49566 4.00861,53.02034 -1.26757,102.71875 -3.49255,32.89742 -21.5,19.5 -21.5,19.5 0,0 -11.45703,-12.10553 -14.76954,-25.91797 -3.45757,-14.41731 -5.8496,-29.34774 -4.8496,-53.84765 0.99996,-24.49999 -3.31599,-46.70076 8.12304,-56.71485 5.66282,-3.68918 12.37435,-5.41873 18.51563,-5.73242 z m 445.25,1.57617 c 13.99914,0.619 28.36922,7.22819 36.00976,18.71485 4.22015,6.3445 2.14043,46.33513 -4.30469,73.54296 0,0 -9.19533,-0.79301 -25.69531,-4.29296 0,0 -21.97882,-4.6107 -25.25,-10.375 -12.74634,-22.46082 -15.875,-39.375 -15.875,-39.375 -1.12497,-8.375 -6.87498,-21.375 15.625,-33 6.68939,-3.45618 13.13848,-5.21287 19.49024,-5.21485 z m -284.28711,0.30469 c 10.31781,-0.0764 21.2467,9.12444 21.86718,30.95312 1.20556,42.40934 5.00252,106.09757 -11.44531,116.56641 -18.56167,11.81431 -48.50863,18.56814 -53.64648,-10.9375 -8.21775,-47.19258 -5.5936,-103.74695 2.5,-110 13.28073,-12.76743 29.74119,-26.50076 40.72461,-26.58203 z m 36.36718,9.45312 c 0,0 26.99966,14.0556 5.5,128.40235 -13.69179,-93.43663 -5.5,-128.40233 -5.5,-128.40235 z m -240.99804,8.49219 c 0,0 14.18015,2.51031 2.52734,132.51953 -23.0189,-72.9499 -2.52734,-132.51953 -2.52734,-132.51953 z m -133.94727,1.39844 c 10.66638,-0.10012 15.43268,4.53307 11.41602,17.39063 -8.3339,24.6259 -16.73515,91.68383 6.3125,144.37109 -40.46573,-6.65681 -61.95703,9.11914 -61.95703,9.11914 l 0.0918,-30.71875 h 12.69336 v -3.88867 h -12.68359 l 0.0156,-4.94922 h 24.6875 v -3.53711 h -24.67773 l 0.32617,-109.85547 c 0,0 17.73191,-10.83763 33.67578,-16.07031 4.37258,-1.27 7.63816,-1.83824 10.09961,-1.86133 z m 30.78711,1.33789 c 11.58973,35.39769 1.95965,84.87707 1.00781,96.08594 -1.33578,19.59492 -2.23054,20.20255 -2.20507,22.51562 -18.05679,-38.03841 -17.46153,-64.29591 1.19726,-118.60156 z m 239.39258,4.15039 c 0,0 24.15769,28.08734 -2.82031,113.56836 -21.53016,-73.13495 2.82031,-113.56836 2.82031,-113.56836 z m 407.44531,5.57813 c 22.52542,52.0677 17.46377,92.94229 -1.05664,134.63086 -9.19366,-41.52545 -13.58997,-101.15859 1.05664,-134.63086 z m -726.2832,8.34961 c 0.0602,-0.0159 0.10156,0.006 0.10156,0.0957 0.56502,-0.18834 1.32429,1.60798 1.13867,8.66211 -0.20666,7.85322 -0.18794,60.04284 -0.20703,99.61328 h -25.18359 v 3.53711 h 25.17578 c -8e-4,1.86659 -0.009,3.23959 -0.01,4.94922 h -13.14648 v 3.88867 h 13.13867 c -0.003,9.89934 -0.0644,31.17383 -0.0644,31.17383 0,0 -48.11607,3.56448 -79.599611,-38.01758 l 54.539061,-47.95313 c 0,0 -2.67719,-3.29594 -2.95508,-12.89843 -0.3727,-12.87829 0.39258,-35.97657 0.39258,-35.97657 0,0 15.14913,-13.06864 26.13867,-16.63281 0,0 0.36031,-0.39444 0.54102,-0.4414 z m 806.39648,2.7539 h 0.002 c 0.33902,0.11301 0.64258,0.34571 0.64257,0.34571 10.98955,3.56415 26.13868,16.63281 26.13868,16.63281 0,0 -0.14673,24.84294 -0.10742,37.72656 0.14626,10.08208 -2.53711,11.4707 -2.53711,11.4707 l 54.62109,47.63086 c 39.3095,34.27884 -79.59961,38.01758 -79.59961,38.01758 0,0 -0.0709,-23.70174 -0.0762,-36.90234 h 12.44336 v -3.89063 h -12.45117 c -6.8e-4,-1.52712 -0.008,-2.38482 -0.0117,-4 h 24.45898 v -3.53515 h -24.46484 c -0.0227,-39.92153 -6.2e-4,-87.35756 -0.19727,-94.83399 -0.18557,-7.05411 0.57363,-8.85045 1.13867,-8.66211 z m -146.9414,46.24024 c 6.73428,-0.21884 14.45312,1.78125 14.45312,1.78125 0,0 9.03244,1.76303 16.375,3 10.37186,1.7472 12.52083,8.73703 12.125,14.75 -0.53185,8.07957 1.6092,32.66525 -2.25,57.5 -0.54644,3.51503 -21.7456,-10.29946 -62.75,9.25 0,0 -11.49998,-8.37501 -5.75,-44.875 3.1911,-20.25631 11.04814,-31.59636 16.375,-36.375 3.39236,-3.0432 7.68933,-4.91001 11.42188,-5.03125 z"
       transform="scale(0.26458333)"
       sodipodi:nodetypes="cccscccccccccccsccsscscsscccscscsccscscccscssscssccsccsccsscccccsscccscccccccccccccsccccccccccccsscsscsscscssccccccscccccscccscccscssccccsssccccscsscsscccsscscscsscscsccccccscccccccccccccsccccccccccscscccccccccccscccccccccscccccccccscscssccsssccssc" />
  </g>
</svg>
